<?xml version="1.0" standalone="no"?>
<!DOCTYPE svg PUBLIC "-//W3C//DTD SVG 1.1//EN" "http://www.w3.org/Graphics/SVG/1.1/DTD/svg11.dtd">
<svg version="1.1" width="1200" height="870" onload="init(evt)" viewBox="0 0 1200 870" xmlns="http://www.w3.org/2000/svg" xmlns:xlink="http://www.w3.org/1999/xlink">
<!-- Flame graph stack visualization. See https://github.com/brendangregg/FlameGraph for latest version, and http://www.brendangregg.com/flamegraphs.html for examples. -->
<!-- NOTES:  -->
<defs>
	<linearGradient id="background" y1="0" y2="1" x1="0" x2="0" >
		<stop stop-color="#eeeeee" offset="5%" />
		<stop stop-color="#eeeeb0" offset="95%" />
	</linearGradient>
</defs>
<style type="text/css">
	text { font-family:Verdana; font-size:12px; fill:rgb(0,0,0); }
	#search, #ignorecase { opacity:0.1; cursor:pointer; }
	#search:hover, #search.show, #ignorecase:hover, #ignorecase.show { opacity:1; }
	#subtitle { text-anchor:middle; font-color:rgb(160,160,160); }
	#title { text-anchor:middle; font-size:17px}
	#unzoom { cursor:pointer; }
	#frames > *:hover { stroke:black; stroke-width:0.5; cursor:pointer; }
	.hide { display:none; }
	.parent { opacity:0.5; }
</style>
<script type="text/ecmascript">
<![CDATA[
	"use strict";
	var details, searchbtn, unzoombtn, matchedtxt, svg, searching, currentSearchTerm, ignorecase, ignorecaseBtn;
	function init(evt) {
		details = document.getElementById("details").firstChild;
		searchbtn = document.getElementById("search");
		ignorecaseBtn = document.getElementById("ignorecase");
		unzoombtn = document.getElementById("unzoom");
		matchedtxt = document.getElementById("matched");
		svg = document.getElementsByTagName("svg")[0];
		searching = 0;
		currentSearchTerm = null;

		// use GET parameters to restore a flamegraphs state.
		var params = get_params();
		if (params.x && params.y)
			zoom(find_group(document.querySelector('[x="' + params.x + '"][y="' + params.y + '"]')));
                if (params.s) search(params.s);
	}

	// event listeners
	window.addEventListener("click", function(e) {
		var target = find_group(e.target);
		if (target) {
			if (target.nodeName == "a") {
				if (e.ctrlKey === false) return;
				e.preventDefault();
			}
			if (target.classList.contains("parent")) unzoom();
			zoom(target);
			if (!document.querySelector('.parent')) {
				clearzoom();
				return;
			}

			// set parameters for zoom state
			var el = target.querySelector("rect");
			if (el && el.attributes && el.attributes.y && el.attributes._orig_x) {
				var params = get_params()
				params.x = el.attributes._orig_x.value;
				params.y = el.attributes.y.value;
				history.replaceState(null, null, parse_params(params));
			}
		}
		else if (e.target.id == "unzoom") clearzoom();
		else if (e.target.id == "search") search_prompt();
		else if (e.target.id == "ignorecase") toggle_ignorecase();
	}, false)

	// mouse-over for info
	// show
	window.addEventListener("mouseover", function(e) {
		var target = find_group(e.target);
		if (target) details.nodeValue = "Function: " + g_to_text(target);
	}, false)

	// clear
	window.addEventListener("mouseout", function(e) {
		var target = find_group(e.target);
		if (target) details.nodeValue = ' ';
	}, false)

	// ctrl-F for search
	// ctrl-I to toggle case-sensitive search
	window.addEventListener("keydown",function (e) {
		if (e.keyCode === 114 || (e.ctrlKey && e.keyCode === 70)) {
			e.preventDefault();
			search_prompt();
		}
		else if (e.ctrlKey && e.keyCode === 73) {
			e.preventDefault();
			toggle_ignorecase();
		}
	}, false)

	// functions
	function get_params() {
		var params = {};
		var paramsarr = window.location.search.substr(1).split('&');
		for (var i = 0; i < paramsarr.length; ++i) {
			var tmp = paramsarr[i].split("=");
			if (!tmp[0] || !tmp[1]) continue;
			params[tmp[0]]  = decodeURIComponent(tmp[1]);
		}
		return params;
	}
	function parse_params(params) {
		var uri = "?";
		for (var key in params) {
			uri += key + '=' + encodeURIComponent(params[key]) + '&';
		}
		if (uri.slice(-1) == "&")
			uri = uri.substring(0, uri.length - 1);
		if (uri == '?')
			uri = window.location.href.split('?')[0];
		return uri;
	}
	function find_child(node, selector) {
		var children = node.querySelectorAll(selector);
		if (children.length) return children[0];
	}
	function find_group(node) {
		var parent = node.parentElement;
		if (!parent) return;
		if (parent.id == "frames") return node;
		return find_group(parent);
	}
	function orig_save(e, attr, val) {
		if (e.attributes["_orig_" + attr] != undefined) return;
		if (e.attributes[attr] == undefined) return;
		if (val == undefined) val = e.attributes[attr].value;
		e.setAttribute("_orig_" + attr, val);
	}
	function orig_load(e, attr) {
		if (e.attributes["_orig_"+attr] == undefined) return;
		e.attributes[attr].value = e.attributes["_orig_" + attr].value;
		e.removeAttribute("_orig_"+attr);
	}
	function g_to_text(e) {
		var text = find_child(e, "title").firstChild.nodeValue;
		return (text)
	}
	function g_to_func(e) {
		var func = g_to_text(e);
		// if there's any manipulation we want to do to the function
		// name before it's searched, do it here before returning.
		return (func);
	}
	function update_text(e) {
		var r = find_child(e, "rect");
		var t = find_child(e, "text");
		var w = parseFloat(r.attributes.width.value) -3;
		var txt = find_child(e, "title").textContent.replace(/\([^(]*\)$/,"");
		t.attributes.x.value = parseFloat(r.attributes.x.value) + 3;

		// Smaller than this size won't fit anything
		if (w < 2 * 12 * 0.59) {
			t.textContent = "";
			return;
		}

		t.textContent = txt;
		// Fit in full text width
		if (/^ *$/.test(txt) || t.getSubStringLength(0, txt.length) < w)
			return;

		for (var x = txt.length - 2; x > 0; x--) {
			if (t.getSubStringLength(0, x + 2) <= w) {
				t.textContent = txt.substring(0, x) + "..";
				return;
			}
		}
		t.textContent = "";
	}

	// zoom
	function zoom_reset(e) {
		if (e.attributes != undefined) {
			orig_load(e, "x");
			orig_load(e, "width");
		}
		if (e.childNodes == undefined) return;
		for (var i = 0, c = e.childNodes; i < c.length; i++) {
			zoom_reset(c[i]);
		}
	}
	function zoom_child(e, x, ratio) {
		if (e.attributes != undefined) {
			if (e.attributes.x != undefined) {
				orig_save(e, "x");
				e.attributes.x.value = (parseFloat(e.attributes.x.value) - x - 10) * ratio + 10;
				if (e.tagName == "text")
					e.attributes.x.value = find_child(e.parentNode, "rect[x]").attributes.x.value + 3;
			}
			if (e.attributes.width != undefined) {
				orig_save(e, "width");
				e.attributes.width.value = parseFloat(e.attributes.width.value) * ratio;
			}
		}

		if (e.childNodes == undefined) return;
		for (var i = 0, c = e.childNodes; i < c.length; i++) {
			zoom_child(c[i], x - 10, ratio);
		}
	}
	function zoom_parent(e) {
		if (e.attributes) {
			if (e.attributes.x != undefined) {
				orig_save(e, "x");
				e.attributes.x.value = 10;
			}
			if (e.attributes.width != undefined) {
				orig_save(e, "width");
				e.attributes.width.value = parseInt(svg.width.baseVal.value) - (10 * 2);
			}
		}
		if (e.childNodes == undefined) return;
		for (var i = 0, c = e.childNodes; i < c.length; i++) {
			zoom_parent(c[i]);
		}
	}
	function zoom(node) {
		var attr = find_child(node, "rect").attributes;
		var width = parseFloat(attr.width.value);
		var xmin = parseFloat(attr.x.value);
		var xmax = parseFloat(xmin + width);
		var ymin = parseFloat(attr.y.value);
		var ratio = (svg.width.baseVal.value - 2 * 10) / width;

		// XXX: Workaround for JavaScript float issues (fix me)
		var fudge = 0.0001;

		unzoombtn.classList.remove("hide");

		var el = document.getElementById("frames").children;
		for (var i = 0; i < el.length; i++) {
			var e = el[i];
			var a = find_child(e, "rect").attributes;
			var ex = parseFloat(a.x.value);
			var ew = parseFloat(a.width.value);
			var upstack;
			// Is it an ancestor
			if (0 == 0) {
				upstack = parseFloat(a.y.value) > ymin;
			} else {
				upstack = parseFloat(a.y.value) < ymin;
			}
			if (upstack) {
				// Direct ancestor
				if (ex <= xmin && (ex+ew+fudge) >= xmax) {
					e.classList.add("parent");
					zoom_parent(e);
					update_text(e);
				}
				// not in current path
				else
					e.classList.add("hide");
			}
			// Children maybe
			else {
				// no common path
				if (ex < xmin || ex + fudge >= xmax) {
					e.classList.add("hide");
				}
				else {
					zoom_child(e, xmin, ratio);
					update_text(e);
				}
			}
		}
		search();
	}
	function unzoom() {
		unzoombtn.classList.add("hide");
		var el = document.getElementById("frames").children;
		for(var i = 0; i < el.length; i++) {
			el[i].classList.remove("parent");
			el[i].classList.remove("hide");
			zoom_reset(el[i]);
			update_text(el[i]);
		}
		search();
	}
	function clearzoom() {
		unzoom();

		// remove zoom state
		var params = get_params();
		if (params.x) delete params.x;
		if (params.y) delete params.y;
		history.replaceState(null, null, parse_params(params));
	}

	// search
	function toggle_ignorecase() {
		ignorecase = !ignorecase;
		if (ignorecase) {
			ignorecaseBtn.classList.add("show");
		} else {
			ignorecaseBtn.classList.remove("show");
		}
		reset_search();
		search();
	}
	function reset_search() {
		var el = document.querySelectorAll("#frames rect");
		for (var i = 0; i < el.length; i++) {
			orig_load(el[i], "fill")
		}
		var params = get_params();
		delete params.s;
		history.replaceState(null, null, parse_params(params));
	}
	function search_prompt() {
		if (!searching) {
			var term = prompt("Enter a search term (regexp " +
			    "allowed, eg: ^ext4_)"
			    + (ignorecase ? ", ignoring case" : "")
			    + "\nPress Ctrl-i to toggle case sensitivity", "");
			if (term != null) search(term);
		} else {
			reset_search();
			searching = 0;
			currentSearchTerm = null;
			searchbtn.classList.remove("show");
			searchbtn.firstChild.nodeValue = "Search"
			matchedtxt.classList.add("hide");
			matchedtxt.firstChild.nodeValue = ""
		}
	}
	function search(term) {
		if (term) currentSearchTerm = term;

		var re = new RegExp(currentSearchTerm, ignorecase ? 'i' : '');
		var el = document.getElementById("frames").children;
		var matches = new Object();
		var maxwidth = 0;
		for (var i = 0; i < el.length; i++) {
			var e = el[i];
			var func = g_to_func(e);
			var rect = find_child(e, "rect");
			if (func == null || rect == null)
				continue;

			// Save max width. Only works as we have a root frame
			var w = parseFloat(rect.attributes.width.value);
			if (w > maxwidth)
				maxwidth = w;

			if (func.match(re)) {
				// highlight
				var x = parseFloat(rect.attributes.x.value);
				orig_save(rect, "fill");
				rect.attributes.fill.value = "rgb(230,0,230)";

				// remember matches
				if (matches[x] == undefined) {
					matches[x] = w;
				} else {
					if (w > matches[x]) {
						// overwrite with parent
						matches[x] = w;
					}
				}
				searching = 1;
			}
		}
		if (!searching)
			return;
		var params = get_params();
		params.s = currentSearchTerm;
		history.replaceState(null, null, parse_params(params));

		searchbtn.classList.add("show");
		searchbtn.firstChild.nodeValue = "Reset Search";

		// calculate percent matched, excluding vertical overlap
		var count = 0;
		var lastx = -1;
		var lastw = 0;
		var keys = Array();
		for (k in matches) {
			if (matches.hasOwnProperty(k))
				keys.push(k);
		}
		// sort the matched frames by their x location
		// ascending, then width descending
		keys.sort(function(a, b){
			return a - b;
		});
		// Step through frames saving only the biggest bottom-up frames
		// thanks to the sort order. This relies on the tree property
		// where children are always smaller than their parents.
		var fudge = 0.0001;	// JavaScript floating point
		for (var k in keys) {
			var x = parseFloat(keys[k]);
			var w = matches[keys[k]];
			if (x >= lastx + lastw - fudge) {
				count += w;
				lastx = x;
				lastw = w;
			}
		}
		// display matched percent
		matchedtxt.classList.remove("hide");
		var pct = 100 * count / maxwidth;
		if (pct != 100) pct = pct.toFixed(1)
		matchedtxt.firstChild.nodeValue = "Matched: " + pct + "%";
	}
]]>
</script>
<rect x="0.0" y="0" width="1200.0" height="870.0" fill="url(#background)"  />
<text id="title" x="600.00" y="24" >Flame Graph</text>
<text id="details" x="10.00" y="853" > </text>
<text id="unzoom" x="10.00" y="24" class="hide">Reset Zoom</text>
<text id="search" x="1090.00" y="24" >Search</text>
<text id="ignorecase" x="1174.00" y="24" >ic</text>
<text id="matched" x="1090.00" y="853" > </text>
<g id="frames">
<g >
<title>[perf_simple_query_flame_a21b1fbb2f481671c80560d96a8acc1cf916b468] (1 samples, 0.06%)</title><rect x="1088.9" y="773" width="0.8" height="15.0" fill="rgb(240,47,47)" rx="2" ry="2" />
<text  x="1091.94" y="783.5" ></text>
</g>
<g >
<title>[perf_simple_query_flame_a21b1fbb2f481671c80560d96a8acc1cf916b468] (4 samples, 0.25%)</title><rect x="1178.4" y="197" width="2.9" height="15.0" fill="rgb(252,183,26)" rx="2" ry="2" />
<text  x="1181.37" y="207.5" ></text>
</g>
<g >
<title>start_thread (1 samples, 0.06%)</title><rect x="1189.3" y="789" width="0.7" height="15.0" fill="rgb(247,85,17)" rx="2" ry="2" />
<text  x="1192.27" y="799.5" ></text>
</g>
<g >
<title>[perf_simple_query_flame_a21b1fbb2f481671c80560d96a8acc1cf916b468] (105 samples, 6.47%)</title><rect x="1104.9" y="517" width="76.4" height="15.0" fill="rgb(222,0,40)" rx="2" ry="2" />
<text  x="1107.94" y="527.5" >[perf_si..</text>
</g>
<g >
<title>__dynamic_cast (1 samples, 0.06%)</title><rect x="1085.3" y="581" width="0.7" height="15.0" fill="rgb(223,192,31)" rx="2" ry="2" />
<text  x="1088.30" y="591.5" ></text>
</g>
<g >
<title>std::_Hash_bytes (1 samples, 0.06%)</title><rect x="1086.0" y="581" width="0.8" height="15.0" fill="rgb(210,125,24)" rx="2" ry="2" />
<text  x="1089.03" y="591.5" ></text>
</g>
<g >
<title>[perf_simple_query_flame_a21b1fbb2f481671c80560d96a8acc1cf916b468] (7 samples, 0.43%)</title><rect x="1176.2" y="261" width="5.1" height="15.0" fill="rgb(246,118,41)" rx="2" ry="2" />
<text  x="1179.19" y="271.5" ></text>
</g>
<g >
<title>syscall-0 (1 samples, 0.06%)</title><rect x="1189.3" y="805" width="0.7" height="15.0" fill="rgb(230,37,11)" rx="2" ry="2" />
<text  x="1192.27" y="815.5" ></text>
</g>
<g >
<title>[perf_simple_query_flame_a21b1fbb2f481671c80560d96a8acc1cf916b468] (970 samples, 59.77%)</title><rect x="381.5" y="613" width="705.3" height="15.0" fill="rgb(236,34,34)" rx="2" ry="2" />
<text  x="384.52" y="623.5" >[perf_simple_query_flame_a21b1fbb2f481671c80560d96a8acc1cf916b468]</text>
</g>
<g >
<title>[perf_simple_query_flame_a21b1fbb2f481671c80560d96a8acc1cf916b468] (1 samples, 0.06%)</title><rect x="542.9" y="485" width="0.8" height="15.0" fill="rgb(238,68,45)" rx="2" ry="2" />
<text  x="545.93" y="495.5" ></text>
</g>
<g >
<title>[unknown] (5 samples, 0.31%)</title><rect x="1184.2" y="757" width="3.6" height="15.0" fill="rgb(235,129,53)" rx="2" ry="2" />
<text  x="1187.18" y="767.5" ></text>
</g>
<g >
<title>[perf_simple_query_flame_a21b1fbb2f481671c80560d96a8acc1cf916b468] (888 samples, 54.71%)</title><rect x="441.1" y="597" width="645.7" height="15.0" fill="rgb(224,117,14)" rx="2" ry="2" />
<text  x="444.14" y="607.5" >[perf_simple_query_flame_a21b1fbb2f481671c80560d96a8acc1cf916b468]</text>
</g>
<g >
<title>[libc-2.33.so] (127 samples, 7.83%)</title><rect x="1090.4" y="757" width="92.3" height="15.0" fill="rgb(215,31,47)" rx="2" ry="2" />
<text  x="1093.39" y="767.5" >[libc-2.33...</text>
</g>
<g >
<title>[ld-2.33.so] (1 samples, 0.06%)</title><rect x="1089.7" y="773" width="0.7" height="15.0" fill="rgb(232,156,32)" rx="2" ry="2" />
<text  x="1092.67" y="783.5" ></text>
</g>
<g >
<title>[perf_simple_query_flame_a21b1fbb2f481671c80560d96a8acc1cf916b468] (127 samples, 7.83%)</title><rect x="1090.4" y="741" width="92.3" height="15.0" fill="rgb(242,137,0)" rx="2" ry="2" />
<text  x="1093.39" y="751.5" >[perf_simpl..</text>
</g>
<g >
<title>[perf_simple_query_flame_a21b1fbb2f481671c80560d96a8acc1cf916b468] (1 samples, 0.06%)</title><rect x="1080.9" y="309" width="0.8" height="15.0" fill="rgb(236,213,38)" rx="2" ry="2" />
<text  x="1083.94" y="319.5" ></text>
</g>
<g >
<title>[perf_simple_query_flame_a21b1fbb2f481671c80560d96a8acc1cf916b468] (1 samples, 0.06%)</title><rect x="1080.9" y="229" width="0.8" height="15.0" fill="rgb(237,121,39)" rx="2" ry="2" />
<text  x="1083.94" y="239.5" ></text>
</g>
<g >
<title>[perf_simple_query_flame_a21b1fbb2f481671c80560d96a8acc1cf916b468] (272 samples, 16.76%)</title><rect x="883.9" y="485" width="197.8" height="15.0" fill="rgb(230,26,1)" rx="2" ry="2" />
<text  x="886.91" y="495.5" >[perf_simple_query_flame_..</text>
</g>
<g >
<title>__cxxabiv1::__si_class_type_info::~__si_class_type_info (5 samples, 0.31%)</title><rect x="1184.2" y="773" width="3.6" height="15.0" fill="rgb(206,204,46)" rx="2" ry="2" />
<text  x="1187.18" y="783.5" ></text>
</g>
<g >
<title>[perf_simple_query_flame_a21b1fbb2f481671c80560d96a8acc1cf916b468] (2 samples, 0.12%)</title><rect x="1179.8" y="101" width="1.5" height="15.0" fill="rgb(246,58,23)" rx="2" ry="2" />
<text  x="1182.82" y="111.5" ></text>
</g>
<g >
<title>[perf_simple_query_flame_a21b1fbb2f481671c80560d96a8acc1cf916b468] (1 samples, 0.06%)</title><rect x="1182.7" y="757" width="0.8" height="15.0" fill="rgb(236,107,1)" rx="2" ry="2" />
<text  x="1185.73" y="767.5" ></text>
</g>
<g >
<title>__cxxabiv1::__vmi_class_type_info::__do_dyncast (1 samples, 0.06%)</title><rect x="1187.8" y="773" width="0.7" height="15.0" fill="rgb(221,148,20)" rx="2" ry="2" />
<text  x="1190.82" y="783.5" ></text>
</g>
<g >
<title>LZ4_compress_fast_extState (1 samples, 0.06%)</title><rect x="10.0" y="789" width="0.7" height="15.0" fill="rgb(208,150,13)" rx="2" ry="2" />
<text  x="13.00" y="799.5" ></text>
</g>
<g >
<title>[unknown] (137 samples, 8.44%)</title><rect x="1089.7" y="789" width="99.6" height="15.0" fill="rgb(224,73,18)" rx="2" ry="2" />
<text  x="1092.67" y="799.5" >[unknown]</text>
</g>
<g >
<title>[perf_simple_query_flame_a21b1fbb2f481671c80560d96a8acc1cf916b468] (1,142 samples, 70.36%)</title><rect x="256.5" y="645" width="830.3" height="15.0" fill="rgb(252,122,49)" rx="2" ry="2" />
<text  x="259.47" y="655.5" >[perf_simple_query_flame_a21b1fbb2f481671c80560d96a8acc1cf916b468]</text>
</g>
<g >
<title>[perf_simple_query_flame_a21b1fbb2f481671c80560d96a8acc1cf916b468] (58 samples, 3.57%)</title><rect x="1139.1" y="421" width="42.2" height="15.0" fill="rgb(230,120,18)" rx="2" ry="2" />
<text  x="1142.11" y="431.5" >[pe..</text>
</g>
<g >
<title>[libc-2.33.so] (1 samples, 0.06%)</title><rect x="1189.3" y="709" width="0.7" height="15.0" fill="rgb(221,64,22)" rx="2" ry="2" />
<text  x="1192.27" y="719.5" ></text>
</g>
<g >
<title>[perf_simple_query_flame_a21b1fbb2f481671c80560d96a8acc1cf916b468] (42 samples, 2.59%)</title><rect x="1150.7" y="373" width="30.6" height="15.0" fill="rgb(217,196,11)" rx="2" ry="2" />
<text  x="1153.74" y="383.5" >[p..</text>
</g>
<g >
<title>[perf_simple_query_flame_a21b1fbb2f481671c80560d96a8acc1cf916b468] (70 samples, 4.31%)</title><rect x="1030.8" y="421" width="50.9" height="15.0" fill="rgb(235,115,54)" rx="2" ry="2" />
<text  x="1033.78" y="431.5" >[perf..</text>
</g>
<g >
<title>[[vdso]] (249 samples, 15.34%)</title><rect x="13.6" y="773" width="181.1" height="15.0" fill="rgb(254,202,52)" rx="2" ry="2" />
<text  x="16.64" y="783.5" >[[vdso]]</text>
</g>
<g >
<title>[perf_simple_query_flame_a21b1fbb2f481671c80560d96a8acc1cf916b468] (127 samples, 7.83%)</title><rect x="1090.4" y="693" width="92.3" height="15.0" fill="rgb(243,68,36)" rx="2" ry="2" />
<text  x="1093.39" y="703.5" >[perf_simpl..</text>
</g>
<g >
<title>[libc-2.33.so] (1 samples, 0.06%)</title><rect x="440.4" y="597" width="0.7" height="15.0" fill="rgb(211,4,26)" rx="2" ry="2" />
<text  x="443.41" y="607.5" ></text>
</g>
<g >
<title>[libc-2.33.so] (1 samples, 0.06%)</title><rect x="481.1" y="581" width="0.8" height="15.0" fill="rgb(249,77,18)" rx="2" ry="2" />
<text  x="484.13" y="591.5" ></text>
</g>
<g >
<title>[perf_simple_query_flame_a21b1fbb2f481671c80560d96a8acc1cf916b468] (1,229 samples, 75.72%)</title><rect x="194.7" y="741" width="893.5" height="15.0" fill="rgb(233,224,28)" rx="2" ry="2" />
<text  x="197.67" y="751.5" >[perf_simple_query_flame_a21b1fbb2f481671c80560d96a8acc1cf916b468]</text>
</g>
<g >
<title>[perf_simple_query_flame_a21b1fbb2f481671c80560d96a8acc1cf916b468] (123 samples, 7.58%)</title><rect x="1092.6" y="613" width="89.4" height="15.0" fill="rgb(239,196,17)" rx="2" ry="2" />
<text  x="1095.58" y="623.5" >[perf_simp..</text>
</g>
<g >
<title>[perf_simple_query_flame_a21b1fbb2f481671c80560d96a8acc1cf916b468] (78 samples, 4.81%)</title><rect x="1124.6" y="453" width="56.7" height="15.0" fill="rgb(234,86,50)" rx="2" ry="2" />
<text  x="1127.57" y="463.5" >[perf_..</text>
</g>
<g >
<title>[unknown] (129 samples, 7.95%)</title><rect x="1090.4" y="773" width="93.8" height="15.0" fill="rgb(248,184,32)" rx="2" ry="2" />
<text  x="1093.39" y="783.5" >[unknown]</text>
</g>
<g >
<title>[perf_simple_query_flame_a21b1fbb2f481671c80560d96a8acc1cf916b468] (127 samples, 7.83%)</title><rect x="1090.4" y="709" width="92.3" height="15.0" fill="rgb(214,158,43)" rx="2" ry="2" />
<text  x="1093.39" y="719.5" >[perf_simpl..</text>
</g>
<g >
<title>[perf_simple_query_flame_a21b1fbb2f481671c80560d96a8acc1cf916b468] (8 samples, 0.49%)</title><rect x="1175.5" y="277" width="5.8" height="15.0" fill="rgb(213,167,31)" rx="2" ry="2" />
<text  x="1178.46" y="287.5" ></text>
</g>
<g >
<title>[perf_simple_query_flame_a21b1fbb2f481671c80560d96a8acc1cf916b468] (1 samples, 0.06%)</title><rect x="1182.7" y="693" width="0.8" height="15.0" fill="rgb(231,74,26)" rx="2" ry="2" />
<text  x="1185.73" y="703.5" ></text>
</g>
<g >
<title>[perf_simple_query_flame_a21b1fbb2f481671c80560d96a8acc1cf916b468] (614 samples, 37.83%)</title><rect x="638.9" y="549" width="446.4" height="15.0" fill="rgb(224,206,12)" rx="2" ry="2" />
<text  x="641.90" y="559.5" >[perf_simple_query_flame_a21b1fbb2f481671c80560d96a8acc1cf916..</text>
</g>
<g >
<title>[perf_simple_query_flame_a21b1fbb2f481671c80560d96a8acc1cf916b468] (1 samples, 0.06%)</title><rect x="542.9" y="453" width="0.8" height="15.0" fill="rgb(237,179,9)" rx="2" ry="2" />
<text  x="545.93" y="463.5" ></text>
</g>
<g >
<title>[perf_simple_query_flame_a21b1fbb2f481671c80560d96a8acc1cf916b468] (2 samples, 0.12%)</title><rect x="1179.8" y="117" width="1.5" height="15.0" fill="rgb(251,2,8)" rx="2" ry="2" />
<text  x="1182.82" y="127.5" ></text>
</g>
<g >
<title>[ld-2.33.so] (1 samples, 0.06%)</title><rect x="1089.7" y="757" width="0.7" height="15.0" fill="rgb(210,112,19)" rx="2" ry="2" />
<text  x="1092.67" y="767.5" ></text>
</g>
<g >
<title>std::locale::id::_M_id (1 samples, 0.06%)</title><rect x="1183.5" y="757" width="0.7" height="15.0" fill="rgb(236,46,14)" rx="2" ry="2" />
<text  x="1186.46" y="767.5" ></text>
</g>
<g >
<title>[perf_simple_query_flame_a21b1fbb2f481671c80560d96a8acc1cf916b468] (127 samples, 7.83%)</title><rect x="1090.4" y="677" width="92.3" height="15.0" fill="rgb(205,18,34)" rx="2" ry="2" />
<text  x="1093.39" y="687.5" >[perf_simpl..</text>
</g>
<g >
<title>[libc-2.33.so] (4 samples, 0.25%)</title><rect x="725.4" y="533" width="2.9" height="15.0" fill="rgb(250,96,47)" rx="2" ry="2" />
<text  x="728.42" y="543.5" ></text>
</g>
<g >
<title>[perf_simple_query_flame_a21b1fbb2f481671c80560d96a8acc1cf916b468] (3 samples, 0.18%)</title><rect x="1179.1" y="133" width="2.2" height="15.0" fill="rgb(211,27,26)" rx="2" ry="2" />
<text  x="1182.09" y="143.5" ></text>
</g>
<g >
<title>[perf_simple_query_flame_a21b1fbb2f481671c80560d96a8acc1cf916b468] (45 samples, 2.77%)</title><rect x="1148.6" y="389" width="32.7" height="15.0" fill="rgb(252,94,14)" rx="2" ry="2" />
<text  x="1151.56" y="399.5" >[p..</text>
</g>
<g >
<title>[libc-2.33.so] (20 samples, 1.23%)</title><rect x="1016.2" y="421" width="14.6" height="15.0" fill="rgb(251,71,5)" rx="2" ry="2" />
<text  x="1019.24" y="431.5" ></text>
</g>
<g >
<title>[perf_simple_query_flame_a21b1fbb2f481671c80560d96a8acc1cf916b468] (491 samples, 30.25%)</title><rect x="728.3" y="533" width="357.0" height="15.0" fill="rgb(247,47,44)" rx="2" ry="2" />
<text  x="731.32" y="543.5" >[perf_simple_query_flame_a21b1fbb2f481671c80560d..</text>
</g>
<g >
<title>[perf_simple_query_flame_a21b1fbb2f481671c80560d96a8acc1cf916b468] (224 samples, 13.80%)</title><rect x="918.8" y="469" width="162.9" height="15.0" fill="rgb(242,153,21)" rx="2" ry="2" />
<text  x="921.81" y="479.5" >[perf_simple_query_fl..</text>
</g>
<g >
<title>[perf_simple_query_flame_a21b1fbb2f481671c80560d96a8acc1cf916b468] (1 samples, 0.06%)</title><rect x="1080.9" y="325" width="0.8" height="15.0" fill="rgb(247,109,32)" rx="2" ry="2" />
<text  x="1083.94" y="335.5" ></text>
</g>
<g >
<title>[perf_simple_query_flame_a21b1fbb2f481671c80560d96a8acc1cf916b468] (1,229 samples, 75.72%)</title><rect x="194.7" y="757" width="893.5" height="15.0" fill="rgb(252,46,2)" rx="2" ry="2" />
<text  x="197.67" y="767.5" >[perf_simple_query_flame_a21b1fbb2f481671c80560d96a8acc1cf916b468]</text>
</g>
<g >
<title>[perf_simple_query_flame_a21b1fbb2f481671c80560d96a8acc1cf916b468] (102 samples, 6.28%)</title><rect x="1107.1" y="501" width="74.2" height="15.0" fill="rgb(224,103,1)" rx="2" ry="2" />
<text  x="1110.12" y="511.5" >[perf_si..</text>
</g>
<g >
<title>std::chrono::_V2::steady_clock::now (1 samples, 0.06%)</title><rect x="1083.1" y="501" width="0.8" height="15.0" fill="rgb(247,159,45)" rx="2" ry="2" />
<text  x="1086.12" y="511.5" ></text>
</g>
<g >
<title>[perf_simple_query_flame_a21b1fbb2f481671c80560d96a8acc1cf916b468] (31 samples, 1.91%)</title><rect x="1059.1" y="389" width="22.6" height="15.0" fill="rgb(236,24,45)" rx="2" ry="2" />
<text  x="1062.13" y="399.5" >[..</text>
</g>
<g >
<title>[perf_simple_query_flame_a21b1fbb2f481671c80560d96a8acc1cf916b468] (1 samples, 0.06%)</title><rect x="542.9" y="549" width="0.8" height="15.0" fill="rgb(234,112,41)" rx="2" ry="2" />
<text  x="545.93" y="559.5" ></text>
</g>
<g >
<title>__cxxabiv1::__vmi_class_type_info::~__vmi_class_type_info (1 samples, 0.06%)</title><rect x="1188.5" y="773" width="0.8" height="15.0" fill="rgb(246,170,38)" rx="2" ry="2" />
<text  x="1191.55" y="783.5" ></text>
</g>
<g >
<title>[perf_simple_query_flame_a21b1fbb2f481671c80560d96a8acc1cf916b468] (7 samples, 0.43%)</title><rect x="1176.2" y="245" width="5.1" height="15.0" fill="rgb(205,223,29)" rx="2" ry="2" />
<text  x="1179.19" y="255.5" ></text>
</g>
<g >
<title>[perf_simple_query_flame_a21b1fbb2f481671c80560d96a8acc1cf916b468] (830 samples, 51.14%)</title><rect x="481.9" y="581" width="603.4" height="15.0" fill="rgb(239,192,10)" rx="2" ry="2" />
<text  x="484.85" y="591.5" >[perf_simple_query_flame_a21b1fbb2f481671c80560d96a8acc1cf916b468]</text>
</g>
<g >
<title>[perf_simple_query_flame_a21b1fbb2f481671c80560d96a8acc1cf916b468] (16 samples, 0.99%)</title><rect x="1169.6" y="309" width="11.7" height="15.0" fill="rgb(223,213,35)" rx="2" ry="2" />
<text  x="1172.64" y="319.5" ></text>
</g>
<g >
<title>[perf_simple_query_flame_a21b1fbb2f481671c80560d96a8acc1cf916b468] (125 samples, 7.70%)</title><rect x="1091.1" y="645" width="90.9" height="15.0" fill="rgb(238,37,49)" rx="2" ry="2" />
<text  x="1094.12" y="655.5" >[perf_simp..</text>
</g>
<g >
<title>[perf_simple_query_flame_a21b1fbb2f481671c80560d96a8acc1cf916b468] (3 samples, 0.18%)</title><rect x="1179.1" y="181" width="2.2" height="15.0" fill="rgb(221,97,5)" rx="2" ry="2" />
<text  x="1182.09" y="191.5" ></text>
</g>
<g >
<title>[perf_simple_query_flame_a21b1fbb2f481671c80560d96a8acc1cf916b468] (125 samples, 7.70%)</title><rect x="1091.1" y="629" width="90.9" height="15.0" fill="rgb(249,180,54)" rx="2" ry="2" />
<text  x="1094.12" y="639.5" >[perf_simp..</text>
</g>
<g >
<title>std::__detail::_Prime_rehash_policy::_M_next_bkt (1 samples, 0.06%)</title><rect x="1087.5" y="661" width="0.7" height="15.0" fill="rgb(214,80,5)" rx="2" ry="2" />
<text  x="1090.49" y="671.5" ></text>
</g>
<g >
<title>[perf_simple_query_flame_a21b1fbb2f481671c80560d96a8acc1cf916b468] (1 samples, 0.06%)</title><rect x="542.9" y="501" width="0.8" height="15.0" fill="rgb(248,31,52)" rx="2" ry="2" />
<text  x="545.93" y="511.5" ></text>
</g>
<g >
<title>[perf_simple_query_flame_a21b1fbb2f481671c80560d96a8acc1cf916b468] (1 samples, 0.06%)</title><rect x="1189.3" y="757" width="0.7" height="15.0" fill="rgb(208,222,30)" rx="2" ry="2" />
<text  x="1192.27" y="767.5" ></text>
</g>
<g >
<title>[perf_simple_query_flame_a21b1fbb2f481671c80560d96a8acc1cf916b468] (139 samples, 8.56%)</title><rect x="980.6" y="437" width="101.1" height="15.0" fill="rgb(240,40,52)" rx="2" ry="2" />
<text  x="983.61" y="447.5" >[perf_simple..</text>
</g>
<g >
<title>__dynamic_cast (1 samples, 0.06%)</title><rect x="1187.1" y="741" width="0.7" height="15.0" fill="rgb(220,30,13)" rx="2" ry="2" />
<text  x="1190.09" y="751.5" ></text>
</g>
<g >
<title>std::_Hash_bytes (1 samples, 0.06%)</title><rect x="1181.3" y="581" width="0.7" height="15.0" fill="rgb(208,183,39)" rx="2" ry="2" />
<text  x="1184.28" y="591.5" ></text>
</g>
<g >
<title>[perf_simple_query_flame_a21b1fbb2f481671c80560d96a8acc1cf916b468] (38 samples, 2.34%)</title><rect x="1054.0" y="405" width="27.7" height="15.0" fill="rgb(232,188,21)" rx="2" ry="2" />
<text  x="1057.04" y="415.5" >[..</text>
</g>
<g >
<title>std::__detail::_Prime_rehash_policy::_M_need_rehash (1 samples, 0.06%)</title><rect x="1086.8" y="661" width="0.7" height="15.0" fill="rgb(212,130,10)" rx="2" ry="2" />
<text  x="1089.76" y="671.5" ></text>
</g>
<g >
<title>[perf_simple_query_flame_a21b1fbb2f481671c80560d96a8acc1cf916b468] (3 samples, 0.18%)</title><rect x="1179.1" y="149" width="2.2" height="15.0" fill="rgb(227,40,38)" rx="2" ry="2" />
<text  x="1182.09" y="159.5" ></text>
</g>
<g >
<title>[perf_simple_query_flame_a21b1fbb2f481671c80560d96a8acc1cf916b468] (122 samples, 7.52%)</title><rect x="1093.3" y="597" width="88.7" height="15.0" fill="rgb(226,126,18)" rx="2" ry="2" />
<text  x="1096.30" y="607.5" >[perf_simp..</text>
</g>
<g >
<title>[perf_simple_query_flame_a21b1fbb2f481671c80560d96a8acc1cf916b468] (2 samples, 0.12%)</title><rect x="1088.2" y="789" width="1.5" height="15.0" fill="rgb(254,119,22)" rx="2" ry="2" />
<text  x="1091.21" y="799.5" ></text>
</g>
<g >
<title>[perf_simple_query_flame_a21b1fbb2f481671c80560d96a8acc1cf916b468] (94 samples, 5.79%)</title><rect x="1112.9" y="485" width="68.4" height="15.0" fill="rgb(251,198,41)" rx="2" ry="2" />
<text  x="1115.93" y="495.5" >[perf_s..</text>
</g>
<g >
<title>[libc-2.33.so] (1 samples, 0.06%)</title><rect x="1182.7" y="741" width="0.8" height="15.0" fill="rgb(228,187,27)" rx="2" ry="2" />
<text  x="1185.73" y="751.5" ></text>
</g>
<g >
<title>[perf_simple_query_flame_a21b1fbb2f481671c80560d96a8acc1cf916b468] (1,229 samples, 75.72%)</title><rect x="194.7" y="693" width="893.5" height="15.0" fill="rgb(232,183,26)" rx="2" ry="2" />
<text  x="197.67" y="703.5" >[perf_simple_query_flame_a21b1fbb2f481671c80560d96a8acc1cf916b468]</text>
</g>
<g >
<title>[libc-2.33.so] (1 samples, 0.06%)</title><rect x="918.1" y="469" width="0.7" height="15.0" fill="rgb(240,54,12)" rx="2" ry="2" />
<text  x="921.08" y="479.5" ></text>
</g>
<g >
<title>[perf_simple_query_flame_a21b1fbb2f481671c80560d96a8acc1cf916b468] (1 samples, 0.06%)</title><rect x="1080.9" y="277" width="0.8" height="15.0" fill="rgb(249,131,29)" rx="2" ry="2" />
<text  x="1083.94" y="287.5" ></text>
</g>
<g >
<title>[perf_simple_query_flame_a21b1fbb2f481671c80560d96a8acc1cf916b468] (5 samples, 0.31%)</title><rect x="1177.6" y="229" width="3.7" height="15.0" fill="rgb(206,38,10)" rx="2" ry="2" />
<text  x="1180.64" y="239.5" ></text>
</g>
<g >
<title>[perf_simple_query_flame_a21b1fbb2f481671c80560d96a8acc1cf916b468] (1 samples, 0.06%)</title><rect x="1180.5" y="37" width="0.8" height="15.0" fill="rgb(253,22,31)" rx="2" ry="2" />
<text  x="1183.55" y="47.5" ></text>
</g>
<g >
<title>[perf_simple_query_flame_a21b1fbb2f481671c80560d96a8acc1cf916b468] (1 samples, 0.06%)</title><rect x="1182.7" y="709" width="0.8" height="15.0" fill="rgb(211,215,51)" rx="2" ry="2" />
<text  x="1185.73" y="719.5" ></text>
</g>
<g >
<title>[perf_simple_query_flame_a21b1fbb2f481671c80560d96a8acc1cf916b468] (1 samples, 0.06%)</title><rect x="1180.5" y="53" width="0.8" height="15.0" fill="rgb(253,160,3)" rx="2" ry="2" />
<text  x="1183.55" y="63.5" ></text>
</g>
<g >
<title>[ld-2.33.so] (1 samples, 0.06%)</title><rect x="1089.7" y="741" width="0.7" height="15.0" fill="rgb(218,113,6)" rx="2" ry="2" />
<text  x="1092.67" y="751.5" ></text>
</g>
<g >
<title>[perf_simple_query_flame_a21b1fbb2f481671c80560d96a8acc1cf916b468] (127 samples, 7.83%)</title><rect x="1090.4" y="725" width="92.3" height="15.0" fill="rgb(236,70,28)" rx="2" ry="2" />
<text  x="1093.39" y="735.5" >[perf_simpl..</text>
</g>
<g >
<title>[perf_simple_query_flame_a21b1fbb2f481671c80560d96a8acc1cf916b468] (1 samples, 0.06%)</title><rect x="1080.9" y="245" width="0.8" height="15.0" fill="rgb(245,153,13)" rx="2" ry="2" />
<text  x="1083.94" y="255.5" ></text>
</g>
<g >
<title>[perf_simple_query_flame_a21b1fbb2f481671c80560d96a8acc1cf916b468] (1 samples, 0.06%)</title><rect x="542.9" y="517" width="0.8" height="15.0" fill="rgb(231,148,50)" rx="2" ry="2" />
<text  x="545.93" y="527.5" ></text>
</g>
<g >
<title>[perf_simple_query_flame_a21b1fbb2f481671c80560d96a8acc1cf916b468] (35 samples, 2.16%)</title><rect x="1155.8" y="357" width="25.5" height="15.0" fill="rgb(206,55,3)" rx="2" ry="2" />
<text  x="1158.83" y="367.5" >[..</text>
</g>
<g >
<title>[perf_simple_query_flame_a21b1fbb2f481671c80560d96a8acc1cf916b468] (170 samples, 10.47%)</title><rect x="958.1" y="453" width="123.6" height="15.0" fill="rgb(225,140,10)" rx="2" ry="2" />
<text  x="961.07" y="463.5" >[perf_simple_qu..</text>
</g>
<g >
<title>[perf_simple_query_flame_a21b1fbb2f481671c80560d96a8acc1cf916b468] (5 samples, 0.31%)</title><rect x="1078.0" y="357" width="3.7" height="15.0" fill="rgb(226,166,11)" rx="2" ry="2" />
<text  x="1081.03" y="367.5" ></text>
</g>
<g >
<title>[perf_simple_query_flame_a21b1fbb2f481671c80560d96a8acc1cf916b468] (1,229 samples, 75.72%)</title><rect x="194.7" y="725" width="893.5" height="15.0" fill="rgb(230,13,46)" rx="2" ry="2" />
<text  x="197.67" y="735.5" >[perf_simple_query_flame_a21b1fbb2f481671c80560d96a8acc1cf916b468]</text>
</g>
<g >
<title>[unknown] (1 samples, 0.06%)</title><rect x="1188.5" y="757" width="0.8" height="15.0" fill="rgb(240,31,37)" rx="2" ry="2" />
<text  x="1191.55" y="767.5" ></text>
</g>
<g >
<title>[perf_simple_query_flame_a21b1fbb2f481671c80560d96a8acc1cf916b468] (28 samples, 1.73%)</title><rect x="1160.9" y="341" width="20.4" height="15.0" fill="rgb(212,86,32)" rx="2" ry="2" />
<text  x="1163.92" y="351.5" ></text>
</g>
<g >
<title>[perf_simple_query_flame_a21b1fbb2f481671c80560d96a8acc1cf916b468] (127 samples, 7.83%)</title><rect x="1090.4" y="661" width="92.3" height="15.0" fill="rgb(236,150,43)" rx="2" ry="2" />
<text  x="1093.39" y="671.5" >[perf_simpl..</text>
</g>
<g >
<title>[libc-2.33.so] (1 samples, 0.06%)</title><rect x="542.9" y="565" width="0.8" height="15.0" fill="rgb(210,226,27)" rx="2" ry="2" />
<text  x="545.93" y="575.5" ></text>
</g>
<g >
<title>__dynamic_cast (1 samples, 0.06%)</title><rect x="1188.5" y="741" width="0.8" height="15.0" fill="rgb(240,78,7)" rx="2" ry="2" />
<text  x="1191.55" y="751.5" ></text>
</g>
<g >
<title>all (1,623 samples, 100%)</title><rect x="10.0" y="821" width="1180.0" height="15.0" fill="rgb(207,168,24)" rx="2" ry="2" />
<text  x="13.00" y="831.5" ></text>
</g>
<g >
<title>std::_Hash_bytes (2 samples, 0.12%)</title><rect x="1081.7" y="501" width="1.4" height="15.0" fill="rgb(233,156,29)" rx="2" ry="2" />
<text  x="1084.67" y="511.5" ></text>
</g>
<g >
<title>[perf_simple_query_flame_a21b1fbb2f481671c80560d96a8acc1cf916b468] (3 samples, 0.18%)</title><rect x="1079.5" y="341" width="2.2" height="15.0" fill="rgb(209,102,36)" rx="2" ry="2" />
<text  x="1082.49" y="351.5" ></text>
</g>
<g >
<title>[libc-2.33.so] (2 samples, 0.12%)</title><rect x="637.4" y="549" width="1.5" height="15.0" fill="rgb(238,36,36)" rx="2" ry="2" />
<text  x="640.44" y="559.5" ></text>
</g>
<g >
<title>[perf_simple_query_flame_a21b1fbb2f481671c80560d96a8acc1cf916b468] (1 samples, 0.06%)</title><rect x="1088.9" y="757" width="0.8" height="15.0" fill="rgb(240,50,39)" rx="2" ry="2" />
<text  x="1091.94" y="767.5" ></text>
</g>
<g >
<title>[perf_simple_query_flame_a21b1fbb2f481671c80560d96a8acc1cf916b468] (745 samples, 45.90%)</title><rect x="543.7" y="565" width="541.6" height="15.0" fill="rgb(209,5,18)" rx="2" ry="2" />
<text  x="546.65" y="575.5" >[perf_simple_query_flame_a21b1fbb2f481671c80560d96a8acc1cf916b468]</text>
</g>
<g >
<title>[perf_simple_query_flame_a21b1fbb2f481671c80560d96a8acc1cf916b468] (4 samples, 0.25%)</title><rect x="1178.4" y="213" width="2.9" height="15.0" fill="rgb(211,98,5)" rx="2" ry="2" />
<text  x="1181.37" y="223.5" ></text>
</g>
<g >
<title>[perf_simple_query_flame_a21b1fbb2f481671c80560d96a8acc1cf916b468] (50 samples, 3.08%)</title><rect x="1144.9" y="405" width="36.4" height="15.0" fill="rgb(213,109,28)" rx="2" ry="2" />
<text  x="1147.92" y="415.5" >[pe..</text>
</g>
<g >
<title>[perf_simple_query_flame_a21b1fbb2f481671c80560d96a8acc1cf916b468] (1 samples, 0.06%)</title><rect x="1189.3" y="725" width="0.7" height="15.0" fill="rgb(244,206,48)" rx="2" ry="2" />
<text  x="1192.27" y="735.5" ></text>
</g>
<g >
<title>[perf_simple_query_flame_a21b1fbb2f481671c80560d96a8acc1cf916b468] (1,213 samples, 74.74%)</title><rect x="204.8" y="661" width="882.0" height="15.0" fill="rgb(210,127,14)" rx="2" ry="2" />
<text  x="207.85" y="671.5" >[perf_simple_query_flame_a21b1fbb2f481671c80560d96a8acc1cf916b468]</text>
</g>
<g >
<title>[perf_simple_query_flame_a21b1fbb2f481671c80560d96a8acc1cf916b468] (1,229 samples, 75.72%)</title><rect x="194.7" y="773" width="893.5" height="15.0" fill="rgb(217,106,1)" rx="2" ry="2" />
<text  x="197.67" y="783.5" >[perf_simple_query_flame_a21b1fbb2f481671c80560d96a8acc1cf916b468]</text>
</g>
<g >
<title>std::locale::_S_initialize (1 samples, 0.06%)</title><rect x="1182.0" y="645" width="0.7" height="15.0" fill="rgb(210,75,5)" rx="2" ry="2" />
<text  x="1185.00" y="655.5" ></text>
</g>
<g >
<title>[perf_simple_query_flame_a21b1fbb2f481671c80560d96a8acc1cf916b468] (1 samples, 0.06%)</title><rect x="1189.3" y="741" width="0.7" height="15.0" fill="rgb(211,154,5)" rx="2" ry="2" />
<text  x="1192.27" y="751.5" ></text>
</g>
<g >
<title>[perf_simple_query_flame_a21b1fbb2f481671c80560d96a8acc1cf916b468] (1,229 samples, 75.72%)</title><rect x="194.7" y="677" width="893.5" height="15.0" fill="rgb(218,117,23)" rx="2" ry="2" />
<text  x="197.67" y="687.5" >[perf_simple_query_flame_a21b1fbb2f481671c80560d96a8acc1cf916b468]</text>
</g>
<g >
<title>[perf_simple_query_flame_a21b1fbb2f481671c80560d96a8acc1cf916b468] (12 samples, 0.74%)</title><rect x="1172.6" y="293" width="8.7" height="15.0" fill="rgb(223,39,6)" rx="2" ry="2" />
<text  x="1175.55" y="303.5" ></text>
</g>
<g >
<title>[libc-2.33.so] (1 samples, 0.06%)</title><rect x="204.1" y="661" width="0.7" height="15.0" fill="rgb(222,127,17)" rx="2" ry="2" />
<text  x="207.12" y="671.5" ></text>
</g>
<g >
<title>[perf_simple_query_flame_a21b1fbb2f481671c80560d96a8acc1cf916b468] (1 samples, 0.06%)</title><rect x="1080.9" y="293" width="0.8" height="15.0" fill="rgb(252,4,35)" rx="2" ry="2" />
<text  x="1083.94" y="303.5" ></text>
</g>
<g >
<title>[perf_simple_query_flame_a21b1fbb2f481671c80560d96a8acc1cf916b468] (13 samples, 0.80%)</title><rect x="1072.2" y="373" width="9.5" height="15.0" fill="rgb(220,139,35)" rx="2" ry="2" />
<text  x="1075.22" y="383.5" ></text>
</g>
<g >
<title>[libc-2.33.so] (1 samples, 0.06%)</title><rect x="322.6" y="629" width="0.8" height="15.0" fill="rgb(243,213,4)" rx="2" ry="2" />
<text  x="325.63" y="639.5" ></text>
</g>
<g >
<title>[perf_simple_query_flame_a21b1fbb2f481671c80560d96a8acc1cf916b468] (1 samples, 0.06%)</title><rect x="542.9" y="469" width="0.8" height="15.0" fill="rgb(242,138,2)" rx="2" ry="2" />
<text  x="545.93" y="479.5" ></text>
</g>
<g >
<title>[[vdso]] (3 samples, 0.18%)</title><rect x="10.7" y="789" width="2.2" height="15.0" fill="rgb(212,220,53)" rx="2" ry="2" />
<text  x="13.73" y="799.5" ></text>
</g>
<g >
<title>[perf_simple_query_flame_a21b1fbb2f481671c80560d96a8acc1cf916b468] (111 samples, 6.84%)</title><rect x="1100.6" y="549" width="80.7" height="15.0" fill="rgb(232,175,35)" rx="2" ry="2" />
<text  x="1103.57" y="559.5" >[perf_sim..</text>
</g>
<g >
<title>[perf_simple_query_flame_a21b1fbb2f481671c80560d96a8acc1cf916b468] (69 samples, 4.25%)</title><rect x="1131.1" y="437" width="50.2" height="15.0" fill="rgb(210,36,14)" rx="2" ry="2" />
<text  x="1134.11" y="447.5" >[perf..</text>
</g>
<g >
<title>[perf_simple_query_flame_a21b1fbb2f481671c80560d96a8acc1cf916b468] (1,050 samples, 64.70%)</title><rect x="323.4" y="629" width="763.4" height="15.0" fill="rgb(237,57,48)" rx="2" ry="2" />
<text  x="326.36" y="639.5" >[perf_simple_query_flame_a21b1fbb2f481671c80560d96a8acc1cf916b468]</text>
</g>
<g >
<title>[perf_simple_query_flame_a21b1fbb2f481671c80560d96a8acc1cf916b468] (1 samples, 0.06%)</title><rect x="1189.3" y="773" width="0.7" height="15.0" fill="rgb(242,77,1)" rx="2" ry="2" />
<text  x="1192.27" y="783.5" ></text>
</g>
<g >
<title>[libc-2.33.so] (2 samples, 0.12%)</title><rect x="255.0" y="645" width="1.5" height="15.0" fill="rgb(215,142,31)" rx="2" ry="2" />
<text  x="258.02" y="655.5" ></text>
</g>
<g >
<title>[perf_simple_query_flame_a21b1fbb2f481671c80560d96a8acc1cf916b468] (1 samples, 0.06%)</title><rect x="1080.9" y="261" width="0.8" height="15.0" fill="rgb(206,20,22)" rx="2" ry="2" />
<text  x="1083.94" y="271.5" ></text>
</g>
<g >
<title>[perf_simple_query_flame_a21b1fbb2f481671c80560d96a8acc1cf916b468] (1 samples, 0.06%)</title><rect x="1182.7" y="725" width="0.8" height="15.0" fill="rgb(241,133,18)" rx="2" ry="2" />
<text  x="1185.73" y="735.5" ></text>
</g>
<g >
<title>[libc-2.33.so] (1,479 samples, 91.13%)</title><rect x="12.9" y="789" width="1075.3" height="15.0" fill="rgb(210,93,46)" rx="2" ry="2" />
<text  x="15.91" y="799.5" >[libc-2.33.so]</text>
</g>
<g >
<title>[perf_simple_query_flame_a21b1fbb2f481671c80560d96a8acc1cf916b468] (119 samples, 7.33%)</title><rect x="1094.8" y="581" width="86.5" height="15.0" fill="rgb(213,26,40)" rx="2" ry="2" />
<text  x="1097.76" y="591.5" >[perf_simp..</text>
</g>
<g >
<title>[perf_simple_query_flame_a21b1fbb2f481671c80560d96a8acc1cf916b468] (319 samples, 19.65%)</title><rect x="849.7" y="501" width="232.0" height="15.0" fill="rgb(245,197,10)" rx="2" ry="2" />
<text  x="852.74" y="511.5" >[perf_simple_query_flame_a21b1..</text>
</g>
<g >
<title>[perf_simple_query_flame_a21b1fbb2f481671c80560d96a8acc1cf916b468] (387 samples, 23.84%)</title><rect x="802.5" y="517" width="281.4" height="15.0" fill="rgb(222,20,19)" rx="2" ry="2" />
<text  x="805.48" y="527.5" >[perf_simple_query_flame_a21b1fbb2f48..</text>
</g>
<g >
<title>perf_simple_que (1,622 samples, 99.94%)</title><rect x="10.0" y="805" width="1179.3" height="15.0" fill="rgb(223,228,49)" rx="2" ry="2" />
<text  x="13.00" y="815.5" >perf_simple_que</text>
</g>
<g >
<title>[perf_simple_query_flame_a21b1fbb2f481671c80560d96a8acc1cf916b468] (116 samples, 7.15%)</title><rect x="1096.9" y="565" width="84.4" height="15.0" fill="rgb(218,156,13)" rx="2" ry="2" />
<text  x="1099.94" y="575.5" >[perf_sim..</text>
</g>
<g >
<title>[perf_simple_query_flame_a21b1fbb2f481671c80560d96a8acc1cf916b468] (88 samples, 5.42%)</title><rect x="1117.3" y="469" width="64.0" height="15.0" fill="rgb(210,221,42)" rx="2" ry="2" />
<text  x="1120.30" y="479.5" >[perf_s..</text>
</g>
<g >
<title>[perf_simple_query_flame_a21b1fbb2f481671c80560d96a8acc1cf916b468] (1,229 samples, 75.72%)</title><rect x="194.7" y="709" width="893.5" height="15.0" fill="rgb(221,142,22)" rx="2" ry="2" />
<text  x="197.67" y="719.5" >[perf_simple_query_flame_a21b1fbb2f481671c80560d96a8acc1cf916b468]</text>
</g>
<g >
<title>[perf_simple_query_flame_a21b1fbb2f481671c80560d96a8acc1cf916b468] (2 samples, 0.12%)</title><rect x="1179.8" y="69" width="1.5" height="15.0" fill="rgb(222,175,24)" rx="2" ry="2" />
<text  x="1182.82" y="79.5" ></text>
</g>
<g >
<title>[perf_simple_query_flame_a21b1fbb2f481671c80560d96a8acc1cf916b468] (3 samples, 0.18%)</title><rect x="1179.1" y="165" width="2.2" height="15.0" fill="rgb(232,182,52)" rx="2" ry="2" />
<text  x="1182.09" y="175.5" ></text>
</g>
<g >
<title>[perf_simple_query_flame_a21b1fbb2f481671c80560d96a8acc1cf916b468] (1 samples, 0.06%)</title><rect x="542.9" y="533" width="0.8" height="15.0" fill="rgb(250,201,25)" rx="2" ry="2" />
<text  x="545.93" y="543.5" ></text>
</g>
<g >
<title>[perf_simple_query_flame_a21b1fbb2f481671c80560d96a8acc1cf916b468] (1 samples, 0.06%)</title><rect x="542.9" y="437" width="0.8" height="15.0" fill="rgb(223,80,26)" rx="2" ry="2" />
<text  x="545.93" y="447.5" ></text>
</g>
<g >
<title>[perf_simple_query_flame_a21b1fbb2f481671c80560d96a8acc1cf916b468] (107 samples, 6.59%)</title><rect x="1103.5" y="533" width="77.8" height="15.0" fill="rgb(252,130,45)" rx="2" ry="2" />
<text  x="1106.48" y="543.5" >[perf_si..</text>
</g>
<g >
<title>[libc-2.33.so] (4 samples, 0.25%)</title><rect x="1184.2" y="741" width="2.9" height="15.0" fill="rgb(251,227,48)" rx="2" ry="2" />
<text  x="1187.18" y="751.5" ></text>
</g>
<g >
<title>[perf_simple_query_flame_a21b1fbb2f481671c80560d96a8acc1cf916b468] (2 samples, 0.12%)</title><rect x="1179.8" y="85" width="1.5" height="15.0" fill="rgb(212,141,24)" rx="2" ry="2" />
<text  x="1182.82" y="95.5" ></text>
</g>
<g >
<title>[perf_simple_query_flame_a21b1fbb2f481671c80560d96a8acc1cf916b468] (20 samples, 1.23%)</title><rect x="1166.7" y="325" width="14.6" height="15.0" fill="rgb(230,89,17)" rx="2" ry="2" />
<text  x="1169.73" y="335.5" ></text>
</g>
<g >
<title>std::__detail::_List_node_base::_M_transfer (2 samples, 0.12%)</title><rect x="1083.9" y="517" width="1.4" height="15.0" fill="rgb(233,60,52)" rx="2" ry="2" />
<text  x="1086.85" y="527.5" ></text>
</g>
</g>
</svg>
